:version 1.10
:name ASF
:units
  mass 1
  length 1
  angle deg
:documentation
  ASF file generated by Kaydara
:root
  axis xyz
  order  tx ty tz rx ry rz
  position 0 0 0
  orientation 0 0 0
:bonedata
  begin
    id 1
    name lfemurDummy
    direction 0.61522 -0.761478 0.204097
    length 5.68318
    axis 0 -0 0 xyz
  end
  begin
    id 2
    name lfemur
    direction 0.34202 -0.939693 -5.84747e-008
    length 16.9147
    axis 0 -0 20 xyz
    dof rx ry rz
    limits( -inf , inf )
( -inf , inf )
( -inf , inf )

  end
  begin
    id 3
    name ltibia
    direction 0.34202 -0.939693 1.20839e-009
    length 18.0532
    axis 0 -0 20 xyz
    dof rz ry rx
    limits( -inf , inf )
( -inf , inf )
( -inf , inf )

  end
  begin
    id 4
    name lfoot
    direction 0.0841971 -0.23133 0.969225
    length 5.23822
    axis -90 7.62852e-016 20 xyz
    dof ry rx rz
    limits( -inf , inf )
( -inf , inf )
( -inf , inf )

  end
  begin
    id 5
    name ltoes
    direction 0 0 0
    length 0
    axis 0 0 0 xyz
    dof rz ry rx
    limits( -inf , inf )
( -inf , inf )
( -inf , inf )

  end
  begin
    id 6
    name rfemurDummy
    direction -0.625247 -0.75382 0.202044
    length 5.74091
    axis 0 -0 0 xyz
  end
  begin
    id 7
    name rfemur
    direction -0.34202 -0.939693 -1.47013e-008
    length 16.4922
    axis 0 -0 -20 xyz
    dof rx ry rz
    limits( -inf , inf )
( -inf , inf )
( -inf , inf )

  end
  begin
    id 8
    name rtibia
    direction -0.34202 -0.939693 -7.74345e-010
    length 18.2421
    axis 0 -0 -20 xyz
    dof rz ry rx
    limits( -inf , inf )
( -inf , inf )
( -inf , inf )

  end
  begin
    id 9
    name rfoot
    direction -0.124331 -0.341598 0.931586
    length 5.45787
    axis -90 -7.62852e-016 -20 xyz
    dof ry rx rz
    limits( -inf , inf )
( -inf , inf )
( -inf , inf )

  end
  begin
    id 10
    name rtoes
    direction 0 0 0
    length 0
    axis 0 0 0 xyz
    dof rz ry rx
    limits( -inf , inf )
( -inf , inf )
( -inf , inf )

  end
  begin
    id 11
    name lowerbackDummy
    direction 0 0 0
    length 0
    axis 0 -0 0 xyz
  end
  begin
    id 12
    name lowerback
    direction -0.0218484 0.994884 -0.0986304
    length 4.45607
    axis 0 -0 0 xyz
    dof rx ry rz
    limits( -inf , inf )
( -inf , inf )
( -inf , inf )

  end
  begin
    id 13
    name upperback
    direction -0.00973057 0.999717 -0.0217111
    length 4.47449
    axis 0 -0 0 xyz
    dof rx ry rz
    limits( -inf , inf )
( -inf , inf )
( -inf , inf )

  end
  begin
    id 14
    name thorax
    direction -0.000928171 0.999699 0.0245198
    length 4.50973
    axis 0 -0 0 xyz
    dof rx ry rz
    limits( -inf , inf )
( -inf , inf )
( -inf , inf )

  end
  begin
    id 15
    name rclavicle
    direction -0.9009 0.425937 -0.0834055
    length 7.28587
    axis 0 -0 0 xyz
    dof rx ry rz
    limits( -inf , inf )
( -inf , inf )
( -inf , inf )

  end
  begin
    id 16
    name rhumerus
    direction -1 -2.23604e-007 -1.42637e-007
    length 13.5704
    axis 180 30 90 xyz
    dof rx ry rz
    limits( -inf , inf )
( -inf , inf )
( -inf , inf )

  end
  begin
    id 17
    name rradius
    direction -1 5.68281e-008 -4.4952e-007
    length 8.06782
    axis 180 30 90 xyz
    dof rz ry rx
    limits( -inf , inf )
( -inf , inf )
( -inf , inf )

  end
  begin
    id 18
    name rwrist
    direction -1 1.51393e-007 1.38143e-007
    length 4.03391
    axis -90 -90 0 xyz
    dof rz rx ry
    limits( -inf , inf )
( -inf , inf )
( -inf , inf )

  end
  begin
    id 19
    name rthumb
    direction 0 0 0
    length 0
    axis 0 0 0 xyz
    dof ry rx rz
    limits( -inf , inf )
( -inf , inf )
( -inf , inf )

  end
  begin
    id 20
    name rhand
    direction -1 -3.34077e-007 -5.59631e-007
    length 1.29744
    axis -90 -90 0 xyz
    dof ry rx rz
    limits( -inf , inf )
( -inf , inf )
( -inf , inf )

  end
  begin
    id 21
    name rfingers
    direction 0 0 0
    length 0
    axis 0 0 0 xyz
    dof rz ry rx
    limits( -inf , inf )
( -inf , inf )
( -inf , inf )

  end
  begin
    id 22
    name lclavicle
    direction 0.940017 0.332249 -0.0773232
    length 8.29589
    axis 0 -0 0 xyz
    dof rx ry rz
    limits( -inf , inf )
( -inf , inf )
( -inf , inf )

  end
  begin
    id 23
    name lhumerus
    direction 1 7.41158e-008 -1.44768e-008
    length 12.0042
    axis 180 -30 -90 xyz
    dof rx ry rz
    limits( -inf , inf )
( -inf , inf )
( -inf , inf )

  end
  begin
    id 24
    name lradius
    direction 1 -1.32972e-007 3.10821e-007
    length 8.1902
    axis 180 -30 -90 xyz
    dof rz ry rx
    limits( -inf , inf )
( -inf , inf )
( -inf , inf )

  end
  begin
    id 25
    name lwrist
    direction 1 3.08957e-007 4.01394e-007
    length 4.09509
    axis -90 90 0 xyz
    dof rz rx ry
    limits( -inf , inf )
( -inf , inf )
( -inf , inf )

  end
  begin
    id 26
    name lthumb
    direction 0 0 0
    length 0
    axis 0 0 0 xyz
    dof ry rx rz
    limits( -inf , inf )
( -inf , inf )
( -inf , inf )

  end
  begin
    id 27
    name lhand
    direction 1 -1.64125e-007 -6.99514e-007
    length 1.37229
    axis -90 90 0 xyz
    dof ry rx rz
    limits( -inf , inf )
( -inf , inf )
( -inf , inf )

  end
  begin
    id 28
    name lfingers
    direction 0 0 0
    length 0
    axis 0 0 0 xyz
    dof rz ry rx
    limits( -inf , inf )
( -inf , inf )
( -inf , inf )

  end
  begin
    id 29
    name lowerneck
    direction -0.030798 0.998024 0.0547665
    length 3.93918
    axis 0 -0 0 xyz
    dof rx ry rz
    limits( -inf , inf )
( -inf , inf )
( -inf , inf )

  end
  begin
    id 30
    name upperneck
    direction 0.0531588 0.996611 -0.0627736
    length 3.95491
    axis 0 -0 0 xyz
    dof rx ry rz
    limits( -inf , inf )
( -inf , inf )
( -inf , inf )

  end
  begin
    id 31
    name head
    direction 0 0 0
    length 0
    axis 0 0 0 xyz
    dof rx ry rz
    limits( -inf , inf )
( -inf , inf )
( -inf , inf )

  end
:hierarchy
  begin
    root lfemurDummy rfemurDummy lowerbackDummy
    lfemurDummy lfemur
    lfemur ltibia
    ltibia lfoot
    lfoot ltoes
    rfemurDummy rfemur
    rfemur rtibia
    rtibia rfoot
    rfoot rtoes
    lowerbackDummy lowerback
    lowerback upperback
    upperback thorax
    thorax rclavicle lclavicle lowerneck
    rclavicle rhumerus
    rhumerus rradius
    rradius rwrist
    rwrist rthumb rhand
    rhand rfingers
    lclavicle lhumerus
    lhumerus lradius
    lradius lwrist
    lwrist lthumb lhand
    lhand lfingers
    lowerneck upperneck
    upperneck head
  end

:SAMPLES-PER-SECOND 30
:FULLY-SPECIFIED
:DEGREES
10
root  10.95993312 36.66666587 -0.3322488914 -6.179992676 -45.75300598 6.024993896
lowerback  16.58810043 3.193429947 2.898279905
upperback  4.151730061 4.619699955 0.623924017
thorax  -4.657939911 2.206909895 -1.898380041
lowerneck  -9.224430084 3.367079973 -3.553879976
upperneck  8.524800301 4.376480103 6.002960205
head  3.831520081 2.367399931 2.666310072
lclavicle  0 -9.442270133e-015 7.951389973e-016
lhumerus  -11.89579964 -14.41870022 86.40419769
lradius  2.511005199e-031 -2.482679384e-031 135.3249969
lwrist  0 -0 7.919300079
lhand  -1.496451383e-031 -27.76390076 20.11240005
lfingers  90 7.125020027 -90
lthumb  89.89689403 5.08795885 91.16245106
rclavicle  0 -9.442270133e-015 7.951389973e-016
rhumerus  11.03139973 30.08580017 -74.93409729
rradius  -5.573684831e-032 3.486858817e-031 99.08180237
rwrist  7.062250077e-031 3.531125038e-031 -45.04740143
rhand  -7.920061211e-032 -33.2840004 9.303460121
rfingers  -90 -7.125020027 -90
rthumb  -92.93752616 -24.25625642 -97.11982154
rfemur  -12.4776001 10.52620029 1.130290031
rtibia  -0 0 57.01670074
rfoot  -0 -33.39680099 -13.63160038
rtoes  5.373923086 19.29304026 -105.8922705
lfemur  -33.46590042 10.99880028 -3.206690073
ltibia  -0 0 70.55750275
lfoot  -0 0.8671519756 -11.29469967
ltoes  -4.250644065 -19.5611806 -102.515957
11
root  11.2307556 36.71400115 -0.2883933426 -6.582992554 -46.727005 6.619995117
lowerback  17.39240074 3.206320047 3.299940109
upperback  4.454269886 4.724289894 0.9278050065
thorax  -4.752970219 2.247420073 -1.862679958
lowerneck  -9.17636013 3.579430103 -3.365540028
upperneck  8.10365963 4.705500126 5.437280178
head  3.698189974 2.504489899 2.470809937
lclavicle  0 -9.442270133e-015 7.951389973e-016
lhumerus  -11.21469975 -13.72879982 86.06839752
lradius  2.518403821e-031 -2.47517398e-031 135.4960022
lwrist  -1.412450015e-030 -1.765562519e-031 8.450819969
lhand  -1.496451383e-031 -27.76390076 20.11240005
lfingers  90 7.125020027 -90
lthumb  89.89689403 5.08795885 91.16245106
rclavicle  0 -9.442270133e-015 7.951389973e-016
rhumerus  12.9066 30.28860092 -73.55180359
rradius  -5.505454118e-032 3.487942629e-031 98.96970367
rwrist  0 3.531125038e-031 -45.21760178
rhand  -7.920061211e-032 -33.2840004 9.303460121
rfingers  -90 -7.125020027 -90
rthumb  -92.93752616 -24.25625642 -97.11982154
rfemur  -13.7116003 10.30440044 -0.1169930026
rtibia  -0 0 57.43209839
rfoot  -0 -32.25239944 -12.26570034
rtoes  5.373923086 19.29304026 -105.8922705
lfemur  -34.16650009 11.10039997 -3.530369997
ltibia  -0 0 71.08989716
lfoot  -0 2.327600002 -12.3739996
ltoes  -4.250644065 -19.5611806 -102.515957
12
root  11.51404418 36.75799933 -0.2519177874 -7.085998535 -47.8809967 7.356994629
lowerback  18.12649918 3.270109892 3.611890078
upperback  4.87842989 4.871640205 1.209849954
thorax  -4.680150032 2.313210011 -1.79903996
lowerneck  -9.239469528 3.771559954 -3.033900023
upperneck  7.498730183 5.020100117 4.561480045
head  3.925630093 2.60984993 2.390010118
lclavicle  0 -9.442270133e-015 7.951389973e-016
lhumerus  -10.23180008 -12.9282999 85.51300049
lradius  2.524013536e-031 -2.469453322e-031 135.6260071
lwrist  -7.062250077e-031 -1.765562519e-031 9.108469963
lhand  -1.496451383e-031 -27.76390076 20.11240005
lfingers  90 7.125020027 -90
lthumb  89.89689403 5.08795885 91.16245106
rclavicle  0 -9.442270133e-015 7.951389973e-016
rhumerus  15.20390034 30.3519001 -71.93939972
rradius  -5.41119771e-032 3.489417348e-031 98.81490326
rwrist  7.062250077e-031 -0 -45.59590149
rhand  -7.920061211e-032 -33.2840004 9.303460121
rfingers  -90 -7.125020027 -90
rthumb  -92.93752616 -24.25625642 -97.11982154
rfemur  -15.23789978 10.23830032 -1.497339964
rtibia  -0 0 58.02890015
rfoot  -0 -30.88430023 -10.2901001
rtoes  5.373923086 19.29304026 -105.8922705
lfemur  -34.7057991 11.2883997 -3.892590046
ltibia  -0 0 71.37779999
lfoot  -0 3.266560078 -13.86019993
ltoes  -4.250644065 -19.5611806 -102.515957
13
root  11.81371118 36.79555457 -0.1967093372 -7.569000244 -49.2480011 8.014007568
lowerback  18.90089989 3.299789906 4.135300159
upperback  5.343420029 5.00605011 1.390020013
thorax  -4.552229881 2.372800112 -1.959190011
lowerneck  -9.292429924 4.076240063 -2.453759909
upperneck  7.369470119 5.407050133 3.994189978
head  3.900229931 2.791419983 2.111939907
lclavicle  0 -9.442270133e-015 7.951389973e-016
lhumerus  -9.093259811 -12.07289982 84.58309937
lradius  2.528878561e-031 -2.46447099e-031 135.7389984
lwrist  0 -1.765562519e-031 9.765660286
lhand  -1.496451383e-031 -27.76390076 20.11240005
lfingers  90 7.125020027 -90
lthumb  89.89689403 5.08795885 91.16245106
rclavicle  0 -9.442270133e-015 7.951389973e-016
rhumerus  17.79850006 30.3192997 -70.41860199
rradius  -5.201900388e-032 3.492598798e-031 98.4713974
rwrist  7.062250077e-031 5.296687558e-031 -46.0646019
rhand  -7.920061211e-032 -33.2840004 9.303460121
rfingers  -90 -7.125020027 -90
rthumb  -92.93752616 -24.25625642 -97.11982154
rfemur  -17.00810051 10.28050041 -2.818690062
rtibia  -0 0 58.74269867
rfoot  -0 -29.16539955 -8.612799644
rtoes  5.373923086 19.29304026 -105.8922705
lfemur  -34.99079895 11.55589962 -4.122640133
ltibia  -0 0 71.44560242
lfoot  -0 3.759560108 -15.45349979
ltoes  -4.250644065 -19.5611806 -102.515957
14
root  12.11888922 36.83866666 -0.1015033309 -8.371002197 -50.64399719 8.960006714
lowerback  19.77799988 3.296639919 4.521180153
upperback  5.775259972 5.081679821 1.572729945
thorax  -4.523089886 2.400870085 -2.035969973
lowerneck  -9.159939766 4.469600201 -2.012470007
upperneck  7.40323019 5.903369904 3.651540041
head  3.888230085 3.031909943 1.941349983
lclavicle  0 -9.442270133e-015 7.951389973e-016
lhumerus  -8.126629829 -11.10680008 83.67320251
lradius  2.533519558e-031 -2.459699715e-031 135.8470001
lwrist  -7.062250077e-031 -1.765562519e-031 10.08390045
lhand  -1.496451383e-031 -27.76390076 20.11240005
lfingers  90 7.125020027 -90
lthumb  89.89689403 5.08795885 91.16245106
rclavicle  0 -9.442270133e-015 7.951389973e-016
rhumerus  20.44059944 30.34480095 -68.88809967
rradius  -4.932865369e-032 3.496500026e-031 98.03029633
rwrist  0 7.062250077e-031 -46.42549896
rhand  -7.920061211e-032 -33.2840004 9.303460121
rfingers  -90 -7.125020027 -90
rthumb  -92.93752616 -24.25625642 -97.11982154
rfemur  -18.76350021 10.35960007 -4.334290028
rtibia  -0 0 59.51940155
rfoot  -0 -27.12759972 -7.276169777
rtoes  5.373923086 19.29304026 -105.8922705
lfemur  -35.01060104 11.67099953 -4.60228014
ltibia  -0 0 71.38169861
lfoot  -0 3.851069927 -16.96369934
ltoes  -4.250644065 -19.5611806 -102.515957
15
root  12.43000031 36.87155416 0.008998910977 -10.03300476 -51.78799438 10.7749939
lowerback  20.92919922 3.362979889 4.229750156
upperback  6.160459995 5.136109829 1.80922997
thorax  -4.750030041 2.409970045 -1.693680048
lowerneck  -8.944299698 4.799180031 -1.598170042
upperneck  7.712979794 6.323550224 3.204960108
head  3.967789888 3.228029966 1.743630052
lclavicle  0 -9.442270133e-015 7.951389973e-016
lhumerus  -7.234769821 -10.05799961 82.95379639
lradius  2.535922409e-031 -2.457222329e-031 135.9029999
lwrist  -1.412450015e-030 -0 10.5642004
lhand  -1.496451383e-031 -27.76390076 20.11240005
lfingers  90 7.125020027 -90
lthumb  89.89689403 5.08795885 91.16245106
rclavicle  0 -9.442270133e-015 7.951389973e-016
rhumerus  23.03039932 30.30389977 -67.09449768
rradius  -4.635254789e-032 3.500569692e-031 97.54290009
rwrist  7.062250077e-031 1.765562519e-031 -46.73479843
rhand  -7.920061211e-032 -33.2840004 9.303460121
rfingers  -90 -7.125020027 -90
rthumb  -92.93752616 -24.25625642 -97.11982154
rfemur  -20.21089935 10.4073 -6.485650063
rtibia  -0 0 60.2901001
rfoot  -9.770013054e-032 -25.36969948 -5.283679962
rtoes  5.373923086 19.29304026 -105.8922705
lfemur  -34.84790039 11.39719963 -5.70291996
ltibia  -0 0 71.24500275
lfoot  -0 3.60819006 -17.58740044
ltoes  -4.250644065 -19.5611806 -102.515957
16
root  12.75219955 36.87800009 0.1163233336 -11.83700562 -52.79199982 12.69500732
lowerback  22.1942997 3.458209991 3.804800034
upperback  6.527029991 5.203750134 2.149749994
thorax  -5.070769787 2.420120001 -1.17516005
lowerneck  -8.511710167 5.040110111 -1.214409947
upperneck  7.953179836 6.63477993 2.724999905
head  3.987390041 3.367500067 1.524350047
lclavicle  0 -9.442270133e-015 7.951389973e-016
lhumerus  -6.23484993 -9.018489838 82.28739929
lradius  2.535407997e-031 -2.457753106e-031 135.8910065
lwrist  -1.412450015e-030 -1.765562519e-031 11.20689964
lhand  -1.496451383e-031 -27.76390076 20.11240005
lfingers  90 7.125020027 -90
lthumb  89.89689403 5.08795885 91.16245106
rclavicle  0 -9.442270133e-015 7.951389973e-016
rhumerus  25.66900063 30.05520058 -65.3368988
rradius  -4.386600037e-032 3.503772458e-031 97.13610077
rwrist  0 7.062250077e-031 -47.02569962
rhand  -7.920061211e-032 -33.2840004 9.303460121
rfingers  -90 -7.125020027 -90
rthumb  -92.93752616 -24.25625642 -97.11982154
rfemur  -21.6541996 10.41810036 -8.644269943
rtibia  -0 0 61.08380127
rfoot  -4.832696621e-032 -24.02860069 -2.88586998
rtoes  5.373923086 19.29304026 -105.8922705
lfemur  -34.71559906 10.93789959 -6.797679901
ltibia  -0 0 71.11229706
lfoot  -0 2.569299936 -17.14800072
ltoes  -4.250644065 -19.5611806 -102.515957
17
root  13.07944501 36.86888988 0.2198560031 -12.96600342 -53.84899902 13.88200378
lowerback  23.31999969 3.438110113 3.883820057
upperback  6.927140236 5.217619896 2.558320045
thorax  -5.237249851 2.404659986 -0.8373489976
lowerneck  -7.95637989 5.266540051 -0.9435480237
upperneck  8.04172039 6.919239998 2.506510019
head  3.919329882 3.50342989 1.400879979
lclavicle  0 -9.442270133e-015 7.951389973e-016
lhumerus  -4.992909908 -7.851630211 81.39050293
lradius  2.535193298e-031 -2.457974568e-031 135.8860016
lwrist  -1.412450015e-030 -0 12.08500004
lhand  -1.496451383e-031 -27.76390076 20.11240005
lfingers  90 7.125020027 -90
lthumb  89.89689403 5.08795885 91.16245106
rclavicle  0 -9.442270133e-015 7.951389973e-016
rhumerus  28.51499939 29.58440018 -63.93239975
rradius  -4.184845857e-032 3.506239394e-031 96.8062973
rwrist  0 3.531125038e-031 -47.42129898
rhand  -7.920061211e-032 -33.2840004 9.303460121
rfingers  -90 -7.125020027 -90
rthumb  -92.93752616 -24.25625642 -97.11982154
rfemur  -23.33909988 10.42319965 -10.12460041
rtibia  -0 0 61.93980026
rfoot  -4.776628662e-032 -22.47249985 -1.275769949
rtoes  5.373923086 19.29304026 -105.8922705
lfemur  -34.79470062 10.52359962 -7.322679996
ltibia  -0 0 71.07369995
lfoot  -0 0.8250359893 -16.13969994
ltoes  -4.250644065 -19.5611806 -102.515957
18
root  13.39626613 36.84888825 0.3337533221 -13.8500061 -54.79199982 14.83999634
lowerback  24.15559959 3.335999966 4.099999905
upperback  7.421730042 5.135540009 2.981450081
thorax  -5.137690067 2.348320007 -0.5095210075
lowerneck  -7.504449844 5.539559841 -0.7157819867
upperneck  8.332389832 7.242790222 2.571120024
head  3.932399988 3.670099974 1.390699983
lclavicle  0 -9.442270133e-015 7.951389973e-016
lhumerus  -3.430939913 -6.495830059 80.21299744
lradius  2.533262106e-031 -2.459964865e-031 135.8410034
lwrist  -7.062250077e-031 -1.765562519e-031 13.32229996
lhand  -1.496451383e-031 -27.76390076 20.11240005
lfingers  90 7.125020027 -90
lthumb  89.89689403 5.08795885 91.16245106
rclavicle  0 -9.442270133e-015 7.951389973e-016
rhumerus  31.56570053 28.90119934 -62.61800003
rradius  -3.801095307e-032 3.510606897e-031 96.17960358
rwrist  7.062250077e-031 1.765562519e-031 -48.04669952
rhand  -7.920061211e-032 -33.2840004 9.303460121
rfingers  -90 -7.125020027 -90
rthumb  -92.93752616 -24.25625642 -97.11982154
rfemur  -24.96269989 10.35620022 -11.3277998
rtibia  -0 0 62.85409927
rfoot  -4.719514432e-032 -20.73209953 -0.6256880164
rtoes  5.373923086 19.29304026 -105.8922705
lfemur  -34.97790146 10.00730038 -7.698040009
ltibia  -0 0 71.10690308
lfoot  -0 -1.507429957 -14.80249977
ltoes  -4.250644065 -19.5611806 -102.515957
